<svg id="visual" viewBox="0 0 3000 1000" width="3000" height="1000" xmlns="http://www.w3.org/2000/svg" xmlns:xlink="http://www.w3.org/1999/xlink" version="1.1"><path d="M0 798L33.3 791.8C66.7 785.7 133.3 773.3 200 774.7C266.7 776 333.3 791 400 796.7C466.7 802.3 533.3 798.7 600 796.3C666.7 794 733.3 793 800 797C866.7 801 933.3 810 1000 816.8C1066.7 823.7 1133.3 828.3 1200 831.7C1266.7 835 1333.3 837 1400 832.2C1466.7 827.3 1533.3 815.7 1600 806.2C1666.7 796.7 1733.3 789.3 1800 788C1866.7 786.7 1933.3 791.3 2000 800.8C2066.7 810.3 2133.3 824.7 2200 817.8C2266.7 811 2333.3 783 2400 769.2C2466.7 755.3 2533.3 755.7 2600 762.3C2666.7 769 2733.3 782 2800 784C2866.7 786 2933.3 777 2966.7 772.5L3000 768L3000 1001L2966.7 1001C2933.3 1001 2866.7 1001 2800 1001C2733.3 1001 2666.7 1001 2600 1001C2533.3 1001 2466.7 1001 2400 1001C2333.3 1001 2266.7 1001 2200 1001C2133.3 1001 2066.7 1001 2000 1001C1933.3 1001 1866.7 1001 1800 1001C1733.3 1001 1666.7 1001 1600 1001C1533.3 1001 1466.7 1001 1400 1001C1333.3 1001 1266.7 1001 1200 1001C1133.3 1001 1066.7 1001 1000 1001C933.3 1001 866.7 1001 800 1001C733.3 1001 666.7 1001 600 1001C533.3 1001 466.7 1001 400 1001C333.3 1001 266.7 1001 200 1001C133.3 1001 66.7 1001 33.3 1001L0 1001Z" fill="#92e4fe"></path><path d="M0 862L33.3 862.8C66.7 863.7 133.3 865.3 200 856.5C266.7 847.7 333.3 828.3 400 826C466.7 823.7 533.3 838.3 600 842.5C666.7 846.7 733.3 840.3 800 842.3C866.7 844.3 933.3 854.7 1000 850.2C1066.7 845.7 1133.3 826.3 1200 820.3C1266.7 814.3 1333.3 821.7 1400 824.8C1466.7 828 1533.3 827 1600 835.5C1666.7 844 1733.3 862 1800 861.2C1866.7 860.3 1933.3 840.7 2000 832.7C2066.7 824.7 2133.3 828.3 2200 836.2C2266.7 844 2333.3 856 2400 860.2C2466.7 864.3 2533.3 860.7 2600 852.8C2666.7 845 2733.3 833 2800 827C2866.7 821 2933.3 821 2966.7 821L3000 821L3000 1001L2966.7 1001C2933.3 1001 2866.7 1001 2800 1001C2733.3 1001 2666.7 1001 2600 1001C2533.3 1001 2466.7 1001 2400 1001C2333.3 1001 2266.7 1001 2200 1001C2133.3 1001 2066.7 1001 2000 1001C1933.3 1001 1866.7 1001 1800 1001C1733.3 1001 1666.7 1001 1600 1001C1533.3 1001 1466.7 1001 1400 1001C1333.3 1001 1266.7 1001 1200 1001C1133.3 1001 1066.7 1001 1000 1001C933.3 1001 866.7 1001 800 1001C733.3 1001 666.7 1001 600 1001C533.3 1001 466.7 1001 400 1001C333.3 1001 266.7 1001 200 1001C133.3 1001 66.7 1001 33.3 1001L0 1001Z" fill="#67dcff"></path><path d="M0 865L33.3 864C66.7 863 133.3 861 200 866.8C266.7 872.7 333.3 886.3 400 893.7C466.7 901 533.3 902 600 898C666.7 894 733.3 885 800 882.2C866.7 879.3 933.3 882.7 1000 885.2C1066.7 887.7 1133.3 889.3 1200 886.7C1266.7 884 1333.3 877 1400 874.2C1466.7 871.3 1533.3 872.7 1600 871.7C1666.7 870.7 1733.3 867.3 1800 869.5C1866.7 871.7 1933.3 879.3 2000 878C2066.7 876.7 2133.3 866.3 2200 868C2266.7 869.7 2333.3 883.3 2400 884.5C2466.7 885.7 2533.3 874.3 2600 871C2666.7 867.7 2733.3 872.3 2800 882.3C2866.7 892.3 2933.3 907.7 2966.7 915.3L3000 923L3000 1001L2966.7 1001C2933.3 1001 2866.7 1001 2800 1001C2733.3 1001 2666.7 1001 2600 1001C2533.3 1001 2466.7 1001 2400 1001C2333.3 1001 2266.7 1001 2200 1001C2133.3 1001 2066.7 1001 2000 1001C1933.3 1001 1866.7 1001 1800 1001C1733.3 1001 1666.7 1001 1600 1001C1533.3 1001 1466.7 1001 1400 1001C1333.3 1001 1266.7 1001 1200 1001C1133.3 1001 1066.7 1001 1000 1001C933.3 1001 866.7 1001 800 1001C733.3 1001 666.7 1001 600 1001C533.3 1001 466.7 1001 400 1001C333.3 1001 266.7 1001 200 1001C133.3 1001 66.7 1001 33.3 1001L0 1001Z" fill="#41c6ea"></path><path d="M0 911L33.3 913.5C66.7 916 133.3 921 200 927.8C266.7 934.7 333.3 943.3 400 943.5C466.7 943.7 533.3 935.3 600 937.2C666.7 939 733.3 951 800 955.2C866.7 959.3 933.3 955.7 1000 952.5C1066.7 949.3 1133.3 946.7 1200 944.7C1266.7 942.7 1333.3 941.3 1400 944.3C1466.7 947.3 1533.3 954.7 1600 953.7C1666.7 952.7 1733.3 943.3 1800 937C1866.7 930.7 1933.3 927.3 2000 932.7C2066.7 938 2133.3 952 2200 953C2266.7 954 2333.3 942 2400 941.7C2466.7 941.3 2533.3 952.7 2600 956C2666.7 959.3 2733.3 954.7 2800 950.2C2866.7 945.7 2933.3 941.3 2966.7 939.2L3000 937L3000 1001L2966.7 1001C2933.3 1001 2866.7 1001 2800 1001C2733.3 1001 2666.7 1001 2600 1001C2533.3 1001 2466.7 1001 2400 1001C2333.3 1001 2266.7 1001 2200 1001C2133.3 1001 2066.7 1001 2000 1001C1933.3 1001 1866.7 1001 1800 1001C1733.3 1001 1666.7 1001 1600 1001C1533.3 1001 1466.7 1001 1400 1001C1333.3 1001 1266.7 1001 1200 1001C1133.3 1001 1066.7 1001 1000 1001C933.3 1001 866.7 1001 800 1001C733.3 1001 666.7 1001 600 1001C533.3 1001 466.7 1001 400 1001C333.3 1001 266.7 1001 200 1001C133.3 1001 66.7 1001 33.3 1001L0 1001Z" fill="#30a2c2"></path></svg>