<svg id="visual" viewBox="0 0 6000 1000" width="6000" height="1000" xmlns="http://www.w3.org/2000/svg" xmlns:xlink="http://www.w3.org/1999/xlink" version="1.1"><path d="M0 792L66.7 805C133.3 818 266.7 844 400 844.7C533.3 845.3 666.7 820.7 800 797.2C933.3 773.7 1066.7 751.3 1200 747.8C1333.3 744.3 1466.7 759.7 1600 775.8C1733.3 792 1866.7 809 2000 821.3C2133.3 833.7 2266.7 841.3 2400 829.7C2533.3 818 2666.7 787 2800 789.8C2933.3 792.7 3066.7 829.3 3200 838.7C3333.3 848 3466.7 830 3600 810.2C3733.3 790.3 3866.7 768.7 4000 759C4133.3 749.3 4266.7 751.7 4400 772.2C4533.3 792.7 4666.7 831.3 4800 846.2C4933.3 861 5066.7 852 5200 834.7C5333.3 817.3 5466.7 791.7 5600 780.5C5733.3 769.3 5866.7 772.7 5933.3 774.3L6000 776L6000 1001L5933.3 1001C5866.7 1001 5733.3 1001 5600 1001C5466.7 1001 5333.3 1001 5200 1001C5066.7 1001 4933.3 1001 4800 1001C4666.7 1001 4533.3 1001 4400 1001C4266.7 1001 4133.3 1001 4000 1001C3866.7 1001 3733.3 1001 3600 1001C3466.7 1001 3333.3 1001 3200 1001C3066.7 1001 2933.3 1001 2800 1001C2666.7 1001 2533.3 1001 2400 1001C2266.7 1001 2133.3 1001 2000 1001C1866.7 1001 1733.3 1001 1600 1001C1466.7 1001 1333.3 1001 1200 1001C1066.7 1001 933.3 1001 800 1001C666.7 1001 533.3 1001 400 1001C266.7 1001 133.3 1001 66.7 1001L0 1001Z" fill="#92e4fe"></path><path d="M0 837L66.7 829.5C133.3 822 266.7 807 400 803.5C533.3 800 666.7 808 800 822.2C933.3 836.3 1066.7 856.7 1200 854.5C1333.3 852.3 1466.7 827.7 1600 811C1733.3 794.3 1866.7 785.7 2000 795.5C2133.3 805.3 2266.7 833.7 2400 847.7C2533.3 861.7 2666.7 861.3 2800 854C2933.3 846.7 3066.7 832.3 3200 835.5C3333.3 838.7 3466.7 859.3 3600 855.7C3733.3 852 3866.7 824 4000 825C4133.3 826 4266.7 856 4400 864.7C4533.3 873.3 4666.7 860.7 4800 854.5C4933.3 848.3 5066.7 848.7 5200 838.8C5333.3 829 5466.7 809 5600 806.7C5733.3 804.3 5866.7 819.7 5933.3 827.3L6000 835L6000 1001L5933.3 1001C5866.7 1001 5733.3 1001 5600 1001C5466.7 1001 5333.3 1001 5200 1001C5066.7 1001 4933.3 1001 4800 1001C4666.7 1001 4533.3 1001 4400 1001C4266.7 1001 4133.3 1001 4000 1001C3866.7 1001 3733.3 1001 3600 1001C3466.7 1001 3333.3 1001 3200 1001C3066.7 1001 2933.3 1001 2800 1001C2666.7 1001 2533.3 1001 2400 1001C2266.7 1001 2133.3 1001 2000 1001C1866.7 1001 1733.3 1001 1600 1001C1466.7 1001 1333.3 1001 1200 1001C1066.7 1001 933.3 1001 800 1001C666.7 1001 533.3 1001 400 1001C266.7 1001 133.3 1001 66.7 1001L0 1001Z" fill="#67dcff"></path><path d="M0 945L66.7 934.5C133.3 924 266.7 903 400 893.5C533.3 884 666.7 886 800 880.5C933.3 875 1066.7 862 1200 859.3C1333.3 856.7 1466.7 864.3 1600 872.2C1733.3 880 1866.7 888 2000 883.8C2133.3 879.7 2266.7 863.3 2400 871.2C2533.3 879 2666.7 911 2800 923C2933.3 935 3066.7 927 3200 915.8C3333.3 904.7 3466.7 890.3 3600 878.7C3733.3 867 3866.7 858 4000 855.8C4133.3 853.7 4266.7 858.3 4400 873.7C4533.3 889 4666.7 915 4800 910.8C4933.3 906.7 5066.7 872.3 5200 863.5C5333.3 854.7 5466.7 871.3 5600 883C5733.3 894.7 5866.7 901.3 5933.3 904.7L6000 908L6000 1001L5933.3 1001C5866.7 1001 5733.3 1001 5600 1001C5466.7 1001 5333.3 1001 5200 1001C5066.7 1001 4933.3 1001 4800 1001C4666.7 1001 4533.3 1001 4400 1001C4266.7 1001 4133.3 1001 4000 1001C3866.7 1001 3733.3 1001 3600 1001C3466.7 1001 3333.3 1001 3200 1001C3066.7 1001 2933.3 1001 2800 1001C2666.7 1001 2533.3 1001 2400 1001C2266.7 1001 2133.3 1001 2000 1001C1866.7 1001 1733.3 1001 1600 1001C1466.7 1001 1333.3 1001 1200 1001C1066.7 1001 933.3 1001 800 1001C666.7 1001 533.3 1001 400 1001C266.7 1001 133.3 1001 66.7 1001L0 1001Z" fill="#41c6ea"></path><path d="M0 938L66.7 935.7C133.3 933.3 266.7 928.7 400 928.8C533.3 929 666.7 934 800 934.2C933.3 934.3 1066.7 929.7 1200 934.3C1333.3 939 1466.7 953 1600 949C1733.3 945 1866.7 923 2000 925C2133.3 927 2266.7 953 2400 953.2C2533.3 953.3 2666.7 927.7 2800 917.8C2933.3 908 3066.7 914 3200 918.2C3333.3 922.3 3466.7 924.7 3600 924.3C3733.3 924 3866.7 921 4000 925.2C4133.3 929.3 4266.7 940.7 4400 946.3C4533.3 952 4666.7 952 4800 950.3C4933.3 948.7 5066.7 945.3 5200 938.7C5333.3 932 5466.7 922 5600 925C5733.3 928 5866.7 944 5933.3 952L6000 960L6000 1001L5933.3 1001C5866.7 1001 5733.3 1001 5600 1001C5466.7 1001 5333.3 1001 5200 1001C5066.7 1001 4933.3 1001 4800 1001C4666.7 1001 4533.3 1001 4400 1001C4266.7 1001 4133.3 1001 4000 1001C3866.7 1001 3733.3 1001 3600 1001C3466.7 1001 3333.3 1001 3200 1001C3066.7 1001 2933.3 1001 2800 1001C2666.7 1001 2533.3 1001 2400 1001C2266.7 1001 2133.3 1001 2000 1001C1866.7 1001 1733.3 1001 1600 1001C1466.7 1001 1333.3 1001 1200 1001C1066.7 1001 933.3 1001 800 1001C666.7 1001 533.3 1001 400 1001C266.7 1001 133.3 1001 66.7 1001L0 1001Z" fill="#30a2c2"></path></svg>